<svg xmlns="http://www.w3.org/2000/svg" width="1024" height="1024">
  <circle cx="512" cy="512" r="512" fill="#3F51B5"/>
  <path fill="#FFF" d="M319.73 731.4c1.6-1.67 3.17-3.45 4.74-5.3-.82 2.34-2.5 4.3-4.74 5.3zm62.15 16.38c-.4-.27-.47 1.36-1.13 1.92-.65.55-2.97-.1-3.87-3.4-.53-1.95-1.66-4-2.73-6 .16 1.15.3 2.37.47 3.7.78 6.07-1.46 13.65-1.46 13.65s2.2-1.68 3.26-.08c1.06 1.6-.24 6.3-1.58 9.38-1.34 3.1.73 4.45-1.26 6.12-2 1.68-4.7-1.3-4.7-1.3s-2.1 4.94-3.6 9.86c-.93 3.04-2.63 8.95-3.8 13.04 2.65-1.75 5.64-3.28 7.25-4 2.83-1.3.42-1.5 2.15-2.64 1.73-1.14 3.5-2.15 4.5-4.74 1-2.6 1.24-1 3.4-2.2 2.15-1.2.96-2.3 1.7-4.1.76-1.8 5.52-1.2 5.52-1.2s.5-.2 1.3-2.6c.78-2.4.06-7.1-1.6-14.4-1.7-7.4-3.42-10.9-3.82-11.2zm-48.3-28.82c4.04-1.28 6.33-5.65 5.5-10.1-2.93 2.9-5.95 6.27-8.53 9.63l-.54.7c1.2.2 2.4.1 3.6-.3zm57.22-28.66l-1.77-1.24 1.65.36c-.15-1.7 0-2.98 0-2.98s-3.63-3.9-8.3-9.4c-2.7 1.5-5.3 2.95-6.6 4-2.95 2.43-6.25 5.57-6.06 8.17.18 2.7 1.36 3.7 5.07 3.4 2.7-.2 5 .3 6.5.7.8-1.2 1.5-2.8 1.5-2.8l-.2 2.8 1.8-3.7.6 3.1.1-2.1 3.1.2-.3-.9 2.5.7zm-13.37-19.23c-1.36 1.5-2.64 2.9-3.3 3.67-1.5 1.7-1.55 2.22-1.55 2.22s3.84-1.66 7.08-3.17l-2.23-2.8zM665.56 776.4c-.15.45-.3.8-.48.98-.86.9-2.3-.82-2.3-.82s-2.35 4.64-3 6.77c-.65 2.13-1.26 12-1.26 12s1.6-.22 1.98 1.35c.4 1.58 1.94-.22 3.48-1.5 1.55-1.27 1.76-.05 2.08-1.3.32-1.23.32-1.58 1.52-2.5.24-.17.44-.28.63-.38-.1-.74-.3-1.54-.6-2.45-1.2-3.5-1.6-8.44-2-12.16zm-242.2-40.62c-.65.05-1.14.03-1.14.03s-.18 1.7.7 8.2c.9 6.5 3.44 16.8 3.44 16.8l1 .3 1.6.4c.4.4.84.7 1.32.7.8.1 1.65.1 2.6 0-.6-2.6-.9-5.4-3.14-9.2-2.82-4.7-4.75-11.7-6.36-17.1zm145.1 12.88c-.6-2.8-2.57-3.45-6.9-13.9-4.33-10.43-7.8-21.6-10.76-33.14-1.67-6.45-3.06-9.55-4.48-11.6-1.9 4.74.8 2.8 2.56 11.32 1.93 9.38-2.54 9.92.98 22 3.52 12.1 4.1 36.74 4.1 36.74s6.3 18.5 7.4 26.38c1.1 7.87 10.5 26.1 11.93 29.4.3.9.8 1.86 1.3 2.82.2-.28.4-.67.8-1.25 2.1-3.22 2.4-2.54 2.8-4.55.4-2.02 1.9-1.82 2.4-3.64.4-1.8 2.1-6.23 3-7.43-1.2-2-2.2-3.9-2.8-5.4-1.7-4 1-8.4 1-8.4s-3.5-4.1-6.6-14.7c-3.1-10.6-4.4-18.9-4.1-20.8.3-1.9-2.2-.8-2.8-3.6zm-324.7-6.37s-1.74 9.7-5.53 15.8c-.62 1-1.2 1.8-1.76 2.6l4.4-2.7c1.04-2.9 2.65-7.7 2.84-10.6.3-4.5.1-5.3.1-5.3zm79.7-37.2c3.05-1.8 5.36-3.1 7.17-4.2-.87-.1-1.74.1-2.6.3-2 .6-3.57 2-4.56 3.8zm-84 36.2s-.2 8.4-3.63 14.1c-3.42 5.7-7.55 6.9-7.55 6.9s4.82-5.8 5.7-13.1c.9-7.3.06-5.1-3.66-.8-2.88 3.3-4.17 3.6-6.38 3.7-3.8 4.4-8.54 10-9.8 11.9-1.38 2-2.08 4.5-1.1 6.5l6.63.4s6.83-4.3 14.2-8.8c2.1-3.8 5-9.4 5.36-12.9.62-5.7.25-8.1.25-8.1zm123.2-18.8c1.23.4 1.07 2 3.13 2.7 2 .7 1.8 1.8 4.8 5.1.9 1 1.5 2.1 2 3.4.7-.6 1.7-.5 1.7-.5s-1.2-.4-2.5-3.2c-1.3-2.9-3.2-8.8-3.4-9.7-.3-1-.4-9.1-.4-9.8 0-.8.5-1.6 1.8-4.1 1.3-2.6 0-.6-.7-.2-.7.4.4-1.2.7-2.5s2-3.3 2.6-4.3c.2-.4.6-.7.9-.9-1.6 0-3.2.1-4.9.3-6.3.6-15.7.1-19.4 1.6-1.6.6-4 2.3-6.8 4.8l.1.5c2.1 6.6-1.1 13.5-7.1 15.4-2 .6-4.1.6-6.1 0 .2 5.8-3.1 11.2-8.5 12.9-1.7.5-3.3.6-5 .4-1.6 1.5-3.2 2.9-4.9 4.2-4.5 3.4-21.4 17.7-34.4 29.7 2.8 4.7 5.1 8.6 5.9 9.9 2.7 4.1-13.1 2.6-15.8 9.7-2.6 7-9.9 15.3-8.1 18.6 1.8 3.3-1.7 8.7-2.7 16.5-.6 4.2-.3 10.6 1.2 17.4 3.2-.1 6.5-.1 9.9.3 4.7.4 8.9 1.1 12.8 1.9-3.1-9.2-6.5-17.6-8.3-20.8-1-1.7-1.8-2.7-2.8-3.7 13.8-13.5 41-14.3 46.5-15.9 4.9-1.5 6.4-5.1 6.8-7.6h.1s3.8-10.5 4.5-14.6c.7-4.1.5-11.8.5-11.8s-.8 1-3.2 1.1c-2.4 0-3.4-4.2-3.9-10.1-.6-5.9 3-6.6 3-6.6s-.3-2.3-.3-3.5c0-1.2.5-5.9 1.4-8.3 1-2.5 1.5-5.7 2.6-7.4 1.1-1.6 1.9-3.3 2.7-4.7.7-1.5 3.7-3.4 4.5-4.6.8-1.2 2.6-1.3 4-1.9 1.4-.7 1-.5 3-1.9 2-1.5 1-.1 2.6-.7 1.6-.7 2.2-1.1 3.2-1.3 1-.3 1.5.1 3.7.5 2.2.3 1.8-.5 3.9.1 2 .5 2.9 1.5 4.1 2.5 1.2 1 2.2.1 3.4.5zm136.64-67.1c2.24.9 3.85 1.4.46 1.4-3.4 0-2.55 1-2.02 2 .53 1.1-.18 1.1-1.95 1.1-1.8 0-4.4-2.4-3.6-7.7.8-5.3 3.4-18.4.7-27.9s-2-8.3-3.1-10.7-2.6-3.1-1.8-.5-1.4-2.1-2.5-4.4c-1.1-2.3-2.7-4.3-2-2.1s0 1.6-2.1-2c-2.1-3.7-2.8-4.7-2.2-2.7.6 1.9-.3 1.3-2.1-.4-1.8-1.8-5.1-5.5-4-3.6 1.2 1.9 4.2 5.8 1.2 2.6-2.9-3.2-7.9-8.7-6.1-5.9 1.8 2.8 1.2 3.9-.4 2.3s-4.7-4.6-2.8-2 .3 1.5-1.3.4-4.9-2.5-3.7-1.5c1.2 1-1 2.5-1.4 1.7-.5-.8-.8-3-1.9-1.2-1.1 1.7-3.8 4.8-3.3 2.6.5-2.1.8-4.2-.5-1.4-1.3 2.7-3 7-2.2 3.3.8-3.6-.1-3.5-1.2-.8-1.1 2.6-2 4.9-2.1 3.5-.1-1.4.8-3.7-.9.1-1.7 3.7-4.5 8.4-4.3 6.7.2-1.7-1.2-5.4-1.3-3.4-.1 2 .3 8.8-.3 6.3-.6-2.5-.2-4.4-.9-1.7-.8 2.7-.7 6.1-1.4 4.1-.6-1.9-.6-3.1-1-.5s-.7 5.2-.9 4.4c-.3-.8-.8 7.6-.2 13.3.5 5.7 1.8 10.6 2.1 11.8l.4 1.1s-2.1-1.1-2.1 1.8c.1 2.8 2.3 6.6 4.6 8.2s2.2 2.3 2.8 3c.6.7 2.7 0 2.7 0s3 3.8 3.9 7.3c.9 3.4 2.2 6.1.6 7.8s-3.7-1.3-4.8.1c-.4.5-.1.8.3 1.1-.5-.2-1.5-.5-3.3-.8-6.9-1.6-7.5-2.8-11.7-4.2-4.2-1.3-8.6-6.9-13-7.1-4.3-.2-3.8-.2-4.9-2.5-1.1-2.3-3.6-3.5-3.6-3.5s-23.7-26.4-31.8-31c-8.1-4.5-24.1-23.7-32.2-29.5-8.1-5.8-27.2-22.3-31-27.9-3.8-5.6-6.6-9.9-3.6-16.1s2.8-8.4 3.7-11.9c.8-3.5 1.5-8.2 3.7-10.1 2.2-2-.8-5.1-3-3.7-2.2 1.4-4.6 5.1-5.9 8.2-1.3 3.1-5.2 7.7-9.1 1.6-3.9-6.1-7.7-18.9-10-21.1-2.3-2.1-3.9-2.7-5.7-1.5-1.7 1.1.1 3 .9 5.5.8 2.4 3.7 9.9 3.8 12.3.1 2.5.2 3-2.5-1.2-2.7-4.1-7.8-13.6-10.4-14.7-2.7-1.1-4.3-.4-4.4 2-.2 2.3 1.9 3.1 3.1 5.8 1.2 2.6 4.4 7.7 5.8 11s1.2 5.5-2.2.3c-3.5-5.1-5.5-11.4-8.3-12-2.9-.5-4.3.1-3.3 3.2.9 3.1 2.9 5.2 4.3 8.5s3 5 4.2 6.9c1.1 2-2.8 1.1-6.7-2.3s-6.2-5.9-8-5.3c-1.8.6-2 1.7 1.1 5 3 3.3 4.9 5.8 8.3 8.6 3.4 2.9 4.8 4.4 6.4 6 1.6 1.6 11.6 15.7 18.6 24.2 7 8.5 20.5 26 33.9 38.6 13.4 12.7 24 21.4 24 21.4s8.4 15.7 16.8 27.2c1.1 1.5 2.1 2.9 3.3 4.3-2.2 2-4.7 4.2-6.2 6-2.2 2.7-3.1 3.1-2.5 1.4.6-1.6 1.4-3.7 2.6-6.3 1.2-2.6 1.3-3.7.7-4.5-.7-.8-1.7-1.2-3.6 1.7-2 2.8-3.8 7.1-4.8 10.4-1.1 3.3-2.4 3.5-3.6 3.8-1.2.2-1.8-2.3-2.4-5.2-.6-2.9-1.2-3.6-2.3-3-1.2.6-.7 1.9-.2 7.3.5 5.4-1.1 5.6-7.5 8.5-6.3 2.9-7.8 7.8-7.8 7.8-.6.9-1.2 1.5-1.8 2.2-2.3-.9-4.8-1.1-7.2-.3-4.2 1.3-7 5.1-7.6 9.5-.4.3-1 .6-1.5 1-2-.5-4.1-.4-6.1.2-4.2 1.4-7.2 5-8.1 9.5-7.6 5.5-14.2 10.8-17.9 14.3-4.6 4.4-13.2 11.7-21.5 16.8l-2.1-3.7s-6.7 4.8-12.8 7.8c-1.6.8-4.6 2.5-8.1 4.6.8-1.38 1.6-3.2 2.4-5.6 2.2-6.6.7-14.1.7-14.1s.6.3 3 2.4c2.4 2 3.5 6.53 3.5 6.53l-.3-4.4c-.2-3.2-2.5-8.7-3.75-11.4.9 1.4 2.77 3.43 6.6 5.6 6.7 3.72 13.7 3.23 13.7 3.23s-7.2-.1-12.8-4.9c-4.64-4.06-8.3-13.46-9.34-16.47.5.96 1.4 2.7 3.6 5.8 3.8 5.4 12.1 12 12.1 12s-9.7-9.9-11.5-17.3c-1.7-7.3-8.1-14.9-8.1-14.9s3.4 2.4 7.5 8.2c4 5.7 10.25 11.5 10.25 11.5s-5.1-7.1-12.5-20.2c-7.3-13.2-22-13.35-22-13.35s-.5-.6 6.8.3c7.3.9 13.9 6.46 13.9 6.46s-2.1-4.3-8.2-6.9c-6-2.6-20.33-3.2-20.33-3.2s5.8-.8 9.8-.7c4.1.1 14.8 4.4 14.8 4.4s-7.6-4.9-13.7-5.9-19.9 0-19.9 0l3.8-1.1c3.72-1.1 13.4-1.6 13.4-1.6s-4.9-.8-10.3-.5c-5.4.4-14.9 4.7-14.9 4.7l2.9-1.6c2.9-1.6 8.4-3.6 8.4-3.6s-5.2.37-10.7 2.76c-5.5 2.4-10.6 9.6-10.6 9.6s-7.1 4.3-11.9 11.5c-4.7 7.2-6.6 17.8-6.6 17.8l3.4-7.2c3.3-7.3 6.6-11.5 6.6-11.5l-2.9 5.1c-2.9 5-3.9 10.1-5.58 15.5-1.6 5.4-1.4 11.4-1.4 11.4.7-4.4 4.6-9.3 4.6-9.3l-.9 4.64c-.9 4.7.5 12.64.5 12.64l-.1-4.6c-.1-4.6 1.4-5.9 1.4-5.9l-.3 4.2c-.3 4.3.8 10.8.8 10.8l-.2-3.2c-.2-3.2 1.6-11.3 1.6-11.3s-.4 2.5-.58 9.3c-.1 6.8 1.5 10.5 1.5 10.5l-.1-1.8c-.1-1.8 1.3-6.9 1.3-6.9l.1 4c.1 4 1.1 9 1.1 9l-.2-2.8c-.2-2.8.6-7.8.6-7.8l.7 4c.2 1.4.5 2.6.8 3.8-1.2 5.4-2.1 12.7-2.8 17l-9.7 4.74s-1.8-.8-4-1.9C111.5 701.5 78 610.1 78 510.9 78.6 272.5 272 79 510.7 79c24.8 0 49.2 2.1 72.9 6.13 1.5.53 3 1.1 4.5 1.76-1.2 3.4-9.54-.3-7.7 6.1 7.3 2.9 12.44 8 24.6 6.1 3.04-5.3-5.24-6.8-1.54-7.7 24.8 1.8 34.7 18.6 49.2 30.7 21-7.8 38.4 8.1 40 29.2-3.24 6.1-15 10.9-7.7 18.4-2.2-.4-2.6-2.6-4.6-3.1-.5 21.9 9.2 31.3 26.16 30.8 4.1 7.6 6.4 17.1 10.8 24.6 23.14 2.7 25.03 10.6 24.6 35.3 18.13.4 11.15 16.7 12.3 26.1 1 8.3 12.77 18.9 1.53 21.5-4.5-.7-4.8-5.5-10.8-4.6 7.74 6.8 11.4 30 18.43 27.7 3.5 16.1 20.5 31.5 6.18 47.7 6.96 6.9 13.6 30.8-1.5 33.9-11.06.2-6.46-18-7.7-23.1-9.13.6-5.3 14.1-6.14 23 15.4 8 23.86 44.2-1.56 47.7 50.3 3.5 48.65 94.6 6.14 101.5 7.1 21.1 36.2 51.3 4.6 64.6 4.03 19.2 6.1 38.6 0 56.9 1.3 1.5 2.4 3.2 3.24 4.9-1.05 3.3-1.5 5.8-1.5 5.8s-4.3 2.3-10 10.2c-5.76 7.9-8.78 14.3-8.78 14.3s-.7-1.2-1.6-.2c-.86 1-.2 3.8-2.7 4.4-2.5.6-.94.3-2.4 2.3-.3.4-.52.7-.7.8-2.93.4-5.04 2.1-6.44 4.6-.38.3-.7.6-.9 1-.78 1.2-.3 1.4-1.6 1.6l-.3.1c-.8-.5-1.6-.9-2.15-1.1-1.5-.5-2.2.8-2.1 1.5 0 .4.7 1.1 1.2 1.6-.32.2-.7.3-1.03.4-1.4.3-2.88 1.5-1.5 2.3l1.1.8c-.1 0-.2.1-.3.3l-.7-.1c-2.2-.4-1.78.3-1.57 1.1.2.7-.26.7-1.4.5-1.15-.2-2.48-2.1-1.3-5.4 1.16-3.3 4.44-11.4 3.9-17.8-.56-6.4-.2-5.6-.64-7.2-.4-1.6-1.22-2.3-1-.5.2 1.7-.6-1.5-1-3.1s-1.1-3.1-.9-1.6c.2 1.5.1 1-.76-1.6-.42-1.3-.5-2.1-.5-2.5v-1h-3c-.82-1-1.04-2.8-.7-1.8.3.7.76 1.8 1.76 2.3v.2c0-.1-1-.4-1.3-.9-1.5-2.4-4.56-6.6-3.76-4.5.8 2 .22 2.6-.6 1.4-.83-1.2-2.48-3.5-1.6-1.6.9 1.9 0 1-.9.1s-2.83-2.2-2.2-1.4c.7.8-.9 1.5-1.1.9-.2-.5-.13-2-1-1s-3.05 2.6-2.4 1.3c.6-1.3 1-2.6-.14-1s-2.74 4.1-1.8 1.9c.97-2.2.4-2.3-.63-.7-1.05 1.6-1.9 2.9-1.8 2 .1-.9 1-2.2-.55 0s-3.9 4.8-3.57 3.8c.3-1-.1-3.6-.4-2.3-.3 1.3-.9 5.7-1 4-.1-1.6.42-2.8-.4-1.2-.8 1.7-1.23 3.9-1.4 2.5-.2-1.3-.05-2.1-.63-.5-.6 1.7-1.1 3.3-1.1 2.7 0-.5-1.4 4.8-1.7 8.5-.38 3.7-.2 7.05-.1 7.8l.1.8s-1.2-1-1.56.85c-.3 1.8.7 4.5 1.9 5.8 1.3 1.3 1.1 1.7 1.4 2.23.3.6 1.7.4 1.7.4s1.4 2.8 1.6 5.2c.1 2.3.6 4.1-.6 5.1-1.3.9-2.2-1.3-3.1-.6-.3.3-.2.6 0 .7-.3-.1-.9-.4-2-.9-4.3-1.8-4.5-2.7-7-4-2.5-1.4-4.7-5.5-7.5-6.1-2.8-.7-2.4-.6-2.8-2.2-.4-1.6-1.9-2.7-1.9-2.7s-11.9-20-16.5-23.9c-4.6-3.9-12.4-18.1-16.9-22.8-4.5-4.7-14.6-17.6-16.3-21.7-1.7-4-3-7.1-.3-10.64 2.7-3.6 2.8-5 3.8-7.1 1-2.1 2-5 3.7-6 1.7-1 .2-3.36-1.4-2.7-1.6.6-3.6 2.6-4.8 4.43-1.3 1.8-4.3 4.3-6.1-.1-1.7-4.4-2.5-13.1-3.8-14.7-1.2-1.7-2.2-2.2-3.5-1.7-1.3.5-.4 1.93-.2 3.6.2 1.6 1.1 6.75.9 8.35-.3 1.6-.2 1.9-1.5-1.06s-3.3-9.64-4.9-10.7c-1.6-1.1-2.7-.8-3.1.7-.4 1.5.8 2.2 1.3 4.1.4 1.8 1.9 5.4 2.4 7.7s.1 3.7-1.5-.04c-1.6-3.7-2.1-8-3.9-8.7-1.8-.7-2.8-.43-2.5 1.66.2 2.1 1.2 3.6 1.7 5.9s1.3 3.5 1.8 4.9c.5 1.4-1.9.36-4-2.3s-3.3-4.5-4.5-4.4c-1.3.1-1.5.8 0 3.3s2.4 4.3 4.2 6.5c1.8 2.3 2.5 3.4 3.3 4.7.8 1.3 5.5 11.5 8.9 17.8 3.5 6.3 9.9 19.1 16.9 28.9 7.3 9.97 13 16.87 13 16.87s3.5 11.1 7.4 19.4c2 4.4 4.5 8.8 6.4 12.1-1.9.1-4.2.3-6 1-3.7 1.4-7.1 5.2-7.1 5.2l1.2-2.18s-2.9 3.05-3.1 3.6c-.1.5-1.7 1.96-1.7 1.96s-.3 1.3-.6 2.9c-.3 1.6-2.1.9-3.4 4.6-1.3 3.7-1.3 11.3-1.3 11.3s-2.6 2.3-2 5c.6 2.6 1.4 5.2 2.6 5.4 1.2.1 1.6-.8 1.6-.8s2.6 6.4 2.8 7.8c.2 1.4-1.5 11.3-1.5 11.3s-2.7-1.2-3.2.4-.3 3.2-1.7 1.8c-1.5-1.35-3.1-3.8-4-3.4-.9.4-1.3.6-1.8-1.5-.6-2.1-.5-2.6-2.6-2.2-1.4.3-1.7.3-2-.3.6-2.8 1.1-4.87 1.4-5.4.8-1.87.2-2.7 1-5.07.7-2.3.9-3.9 1.2-14.9.2-10.9-1.3-29-2.4-36.5-1.1-7.5-2.2-16-1.9-21.5.2-5.5-4.4-12.8-5.4-15.9-1-3.1-1.2-7.5-1.5-10-.3-2.6-1.7-4.5-2.8-4.1-1.1.4-1 1.8-.7 4 .2 2.3.4 4.8.2 6.5-.2 1.7 0 3.1-.8 3.4-.8.3-1.1-2.4-1.5-5.1-.5-2.6-1.4-5.2-2.1-8.3-.8-3.2-2-4.4-2.8-4-.8.4-1.5 1.3-1.1 3.2.4 1.9 1.3 7.6 1.6 9.5.3 1.9.2 3.6-.4 3.7-.6.2-1.8-1.9-3.3-5.4-1.6-3.5-2.2-5.4-3.3-8.2-1.2-2.8-2.3-3.6-3-3-.8.5-1.3 1.6-.9 2.8.3 1.2 1.7 5 2 8 .4 3 3.3 7.9 3.3 7.9s-.4-.3-2.1-2.36c-1.7-2.1-3.6-5.3-5-8.2-1.35-2.9-2.95-3-4-1.83-1 1.2.4 3.6 2 7.3 1.5 3.7 5.2 8.4 6.5 10.3 1.3 1.9 1.6 6.4 1.3 6.4-.3-.1-2.7-1.3-5.4-2.3-2.8-1-4.9-1.3-5.7-.1-.9 1.1.9 2.2 2.6 2.8 1.7.6 2.4 2.3 5 4.1s3.46 2.7 7.95 4.3c4.4 1.6 4.8 2.5 5.5 5.2.6 2.77.7 5.86.4 11.85-.38 6 .9 9.35-1.1 15.85-1.38 4.3-2.28 13.15-2.6 19.85-2.2-4.7-5.1-9.8-7.6-12-5.2-4.4-7-9.9-7.6-14.4-.7-4.6-7.6-19.2-12.6-27.1-5-8-9.3-18.8-9-24.1s-.4-9.1-1.97-13.3c-1.5-4.2-2.66-6.2-3.7-6.4-.9-.1-1.9-1-2.4-2 .6-1.6 1.3-3.1 2.14-4.2 4.93-6.2 5.4-13.7 4.6-16.3-.87-2.6-1.8-3.3-1.8-3.3s12-38.3 12.9-44.5c.9-6.16 2.9-12.16 4.83-15.47 2-3.3 7.1-17.1 7.1-17.1s8.9-34.8 10.4-45.6c1.5-10.85 4.2-19.2 5.7-23.4s.6-9.3 1.2-14 2.3-12.9 3-17.25c.8-4.3 1-8.5-.7-9s-4 2.5-4.2 5.8c-.2 3.26-1.5 8.1-2.7 10.5-1.2 2.3-2.1.67-1.6-4.5.4-5.14 1.4-14.4-.1-17.5-1.6-3-3.3-2.9-4.3-1.6-1.1 1.2-.7 4.1-.9 7.9-.2 3.88-.4 8.2-1.1 11.1-.7 2.9-.9.67-1.6-5.53-.8-6.2-.8-12.6-1-15.8-.2-3.2-1.6-3.3-3.1-2.8-1.4.5-2.4 2.5-2.4 6.5 0 3.9-.4 9.1-.1 13.6.4 4.5-1.2 7.9-2.2-.9-1-8.8-1-14.8-2.9-15.3-1.9-.4-3.8 2.1-3.4 6.6.4 4.5.3 11.7.7 15.1.4 3.5.9 6.7-.5 10-1.5 3.3-3.1 3.9-6.1.5-3.05-3.3-4.4-5.9-8.5-6.4s-4 2.6-2.4 4.2c1.6 1.7 2.54 1.9 2.54 1.9s1.3 2.5 3.6 5.7 2.1 3.6 4.7 6.3c2.7 2.7 8.2 7.04 8.7 8.7.5 1.6 1.3 11.2-4.04 24.7s-15.2 29.3-17.5 38.3c-2.3 8.9-2.1 17.4-2.1 17.4s-5.8 4.7-12.14 18.34c-6.33 13.6-9.03 24.1-9.03 24.1s-1.4-1.6-2.4.2.8 5.8-2.8 7.5c-3.6 1.6-1.4.8-3 4.1-1.6 3.4-1.76 1.3-3.7 3-2 1.7 1.4 2.8-1.2 4.14-2.6 1.3-4.7 2.7-5.4 4.8-.8 2 0 2.1-1.9 2.9-1.9.8-3.9 4.1-5.9 4.9-2.1.9-3.9 3-1.6 3.9zm117.96 120.9c1.2.3 1.8 1.7 1.54 2.7h3.07c0-1 1.25-1.4 1.54-2.6-.9-.5-5.9-4-6.1-.1zM708 408.7c-6.28-7.12-7.93-19.76-3.07-30.76h-4.6c-4.96 10-5.2 30.6 7.68 30.75zm-4.6-61.7c.2-2-1.4-2.7-3.4-2.17V347h3.4zm9.22 273.17c-1.35-1.18-4.4.94-4.6 1.54-2.18 5.8 7.64 1.1 4.6-1.5zm0-3.17c.2-3-1.62-3.5-3.62-3v3h3.62zm30.77 90.84c-5.8 1.18.7-9.82-7.7-9.23-1.8 6.5 2.7 14.6 7.7 9.3zm9.2-112.28c-3.6-8.53 5.8-8.22 6.1-16.92-10.8-1.66-13.2 14.68-6.2 16.92zM734.1 355.6c5.7.4 5.9-12.75 1.54-15.38-2.73 2.9-1.13 10.16-1.54 15.38zm16.92 198.43c-17.2-9.34-25.1-64.74-7.7-93.83-23.74 16.88-27.23 91.95 7.7 93.83zM724.9 257.76C721.25 247.6 710.8 244 714.17 227h-4.6c-4.63 13 1.64 29.96 15.37 30.76zm-12.3 36.3c-4.44-6.83 4.57-17.05-1.53-20-3.73 3.23-9.36 20.23 1.5 20zm-13.84 7.8c4.9-.2 11.76 1.4 10.76-4.72-7.86 1.2-12.7-1.14-10.77-9.14h-4.63c-1.12 7 2.2 10.14 4.62 13.87zm3.07 324.46c-9.64-.46-9.18-15.53-4.62-21.54-16.2-.95-4.5 34.26 4.7 21.54zm-24.6-178.43c2.9-.4 3.38 1.7 6.14 1.5-2.04-2.6.57-9.8-4.6-9.3.62 3.7-2.8 3.3-1.54 7.7zM664.9 269.4c1.55 0 1.84 1.25 3.1 1.54 0-1.55 1.23-1.84 1.53-3.08-1.55 0-1.84-1.26-3.08-1.55 0 1.6-1.26 1.9-1.55 3.1zm.1 429.18c7 .5 2.63-2.6 3.02-9.6H665v9.6zm-41.6-517.2c4.1 3.6 5.8 9.86 12.32 11.04-4.1-6.5-11.47-14.44-6.16-26.44h-4.6c.5 6-2.75 8.56-1.55 15.4zm-30.75-35c-1.72-2.9-2.16-7.06-6.16-7.68-3.1 3.25-.5 9.53 6.1 7.7z"/>
</svg>